# xmcd CD database file
#
# Track frame offsets:
#	207
#	16035
#	28332
#	40122
#	52860
#	67442
#	87427
#	102812
#	119505
#	129180
#	143187
#	160942
#	177450
#
# Disc length: 2545 seconds
#
# Revision: 0
# Processed by: cddbd v1.4PL0 Copyright (c) Steve Scherf et al.
# Submitted via: CDex 1.50beta9
#
DISCID=b009ef0d
DTITLE=DUBLIN CITY RAMBLERS - IRIRISH FOOTBALL and PUB SONGS
DYEAR=1900
DGENRE=Country
TTITLE0=Away Andy
TTITLE1=Wild Rover
TTITLE2=Go-Jackie-go
TTITLE3=Molly Malone
TTITLE4=Boys In Green
TTITLE5=Pub Song Medley-The Irish Rover-Mursheen Durkin_Whiskey In The Jar-Rare Ould Mountain Dew-The Little Beggarman-Waxies Dargle-I'
TTITLE6=Jackie's Dream Machine
TTITLE7=Football Crazy Medley-Featuring-Ole!Ole!-Here We Go!-Come On You Boys In Green-Alive Alive-)--And Many More
TTITLE8=The Craic And The Porter Black
TTITLE9=Paddy Lie Back
TTITLE10=Que Sera Sera
TTITLE11=Dirty Old Town
TTITLE12=You'll Never Beat The Irish
EXTD=
EXTT0=
EXTT1=
EXTT2=
EXTT3=
EXTT4=
EXTT5=
EXTT6=
EXTT7=
EXTT8=
EXTT9=
EXTT10=
EXTT11=
EXTT12=
PLAYORDER=
